<?xml version="1.0" encoding="utf-8"?>
<!-- Generator: Adobe Illustrator 17.0.0, SVG Export Plug-In . SVG Version: 6.00 Build 0)  -->
<!DOCTYPE svg PUBLIC "-//W3C//DTD SVG 1.1//EN" "http://www.w3.org/Graphics/SVG/1.1/DTD/svg11.dtd">
<svg version="1.1" id="레이어_1" xmlns="http://www.w3.org/2000/svg" xmlns:xlink="http://www.w3.org/1999/xlink" x="0px"
	 y="0px" width="500px" height="500px" viewBox="0 0 500 500" enable-background="new 0 0 500 500" xml:space="preserve">
<g>
	<path fill="#FFFFFF" d="M418.784,127.216c-5.02-5.04-12.076-8.22-19.784-8.216H103c-7.708-0.004-14.764,3.176-19.784,8.216
		c-5.04,5.02-8.22,12.076-8.216,19.784v208c-0.004,7.708,3.176,14.764,8.216,19.784c5.02,5.04,12.076,8.22,19.784,8.216h296
		c7.708,0.004,14.764-3.176,19.784-8.216c5.04-5.02,8.22-12.08,8.216-19.784V147C427.004,139.292,423.824,132.236,418.784,127.216z
		 M403,340.728L307.96,253L403,165.272V340.728z M103,143h296c1.092,0.004,2.036,0.42,2.816,1.184
		c0.076,0.076,0.1,0.168,0.168,0.248L270.148,266.128c-4.108,3.812-9.852,5.872-15.7,5.868c-5.636,0.004-11.156-1.908-15.212-5.48
		L100.084,144.332c0.04-0.048,0.056-0.1,0.096-0.148C100.964,143.42,101.908,143.004,103,143z M99,341.328v-176.66L199.596,253
		L99,341.328z M103.124,359l108.596-95.352l16.96,14.892c7.304,6.404,16.592,9.452,25.764,9.456
		c9.512-0.004,19.136-3.284,26.552-10.108l15.168-14l103,95.08c-0.056,0-0.1,0.032-0.164,0.032H103.124z"/>
</g>
</svg>
