<?xml version="1.0" encoding="utf-8"?>
<!-- Generator: Adobe Illustrator 17.0.0, SVG Export Plug-In . SVG Version: 6.00 Build 0)  -->
<!DOCTYPE svg PUBLIC "-//W3C//DTD SVG 1.1//EN" "http://www.w3.org/Graphics/SVG/1.1/DTD/svg11.dtd">
<svg version="1.1" id="레이어_1" xmlns="http://www.w3.org/2000/svg" xmlns:xlink="http://www.w3.org/1999/xlink" x="0px"
	 y="0px" width="500px" height="500px" viewBox="0 0 500 500" enable-background="new 0 0 500 500" xml:space="preserve">
<path fill="#FFFFFF" d="M397.881,387.934c0,4.925-4.023,8.947-8.947,8.947h-71.64v-104.68h39.952l8.222-63.14h-48.173V206.98
	c0-5.734,0.936-9.307,2.565-11.242c1.899-2.256,6.419-3.399,12.928-3.399l33.523-0.015v-57.743l-7.384-0.958
	c-3.768-0.501-18.827-1.929-37.553-1.929c-20.286,0-37.428,6.371-49.624,18.426c-12.616,12.47-19.258,30.518-19.258,52.193v26.748
	h-40.709v63.14h40.709v104.68H111.066c-4.925,0-8.947-4.022-8.947-8.947V110.065c0-4.925,4.022-8.946,8.947-8.946h277.868
	c4.924,0,8.947,4.021,8.947,8.946V387.934z"/>
</svg>
